<?xml version="1.0" encoding="utf-8"?>
<!-- Generator: Adobe Illustrator 21.0.2, SVG Export Plug-In . SVG Version: 6.00 Build 0)  -->
<svg version="1.1" id="Layer_1" xmlns="http://www.w3.org/2000/svg" xmlns:xlink="http://www.w3.org/1999/xlink" x="0px" y="0px"
	 viewBox="0 0 187 35.5" style="enable-background:new 0 0 187 35.5;" xml:space="preserve">
<style type="text/css">
	.st0{fill:#F58120;}
	.st1{fill:#B4B5B8;}
</style>
<title>logo</title>
<rect x="152.4" y="0.9" class="st0" width="12.9" height="13.1"/>
<rect x="173.9" y="0.8" class="st0" width="13.1" height="13.1"/>
<rect x="173.7" y="21.9" class="st0" width="13.1" height="13.1"/>
<rect x="152.2" y="21.8" class="st0" width="13.1" height="13.1"/>
<path class="st1" d="M0,0.6h3.9l12.5,18.7L28.9,0.6h3.9v34.3H29V7.1L16.5,25.5h-0.2L3.8,7.2v27.7H0V0.6z"/>
<path class="st1" d="M41,17.8v-0.1C41,8.3,48.1,0,58.5,0S76,8.2,76,17.6v0.1c0,9.5-7.1,17.7-17.5,17.7S41,27.3,41,17.8z M72,17.8
	v-0.1c0-7.8-5.7-14.1-13.5-14.1S45,9.9,45,17.6v0.1c0,7.8,5.7,14.2,13.5,14.2S72,25.6,72,17.8z"/>
<path class="st1" d="M84.2,0.6h14.8c4.2,0,7.6,1.3,9.8,3.4c1.7,1.8,2.7,4.2,2.7,6.8v0.1c0,5.7-3.9,9-9.3,10l10.5,14h-4.8l-10-13.3
	H88v13.3h-3.9V0.6z M98.6,18.1c5.1,0,8.8-2.6,8.8-7.1v-0.1c0-4.2-3.2-6.8-8.8-6.8H88.1v13.9H98.6z"/>
<path class="st1" d="M119.6,0.6h24.8v3.5h-20.9v11.7h18.7v3.5h-18.7v12h21.2v3.5h-25L119.6,0.6z"/>
</svg>
