<svg id="Layer_1" data-name="Layer 1" xmlns="http://www.w3.org/2000/svg" viewBox="0 0 186.98 55.46"><defs><style>.cls-1{fill:#f58120;}.cls-2{fill:#fff;}</style></defs><title>logo</title><rect class="cls-1" x="152.36" y="0.91" width="12.87" height="13.13"/><rect class="cls-1" x="173.86" y="0.78" width="13.12" height="13.13"/><rect class="cls-1" x="173.73" y="21.91" width="13.12" height="13.13"/><rect class="cls-1" x="152.23" y="21.78" width="13.12" height="13.13"/><rect class="cls-1" x="141.04" y="43.84" width="1.46" height="7.21"/><rect class="cls-1" x="138.19" y="46.72" width="7.44" height="1.21"/><path class="cls-2" d="M0,.59H3.92L16.41,19.3,28.91.59h3.92v34.3H29V7.1L16.46,25.48h-.2L3.77,7.15V34.89H0Z"/><path class="cls-2" d="M41,17.83v-.1C41,8.28,48.12,0,58.55,0S76,8.18,76,17.64v.1c0,9.46-7.1,17.74-17.54,17.74S41,27.29,41,17.83Zm31,0v-.1C72,9.95,66.29,3.58,58.46,3.58S45,9.85,45,17.64v.1c0,7.79,5.68,14.16,13.52,14.16S72,25.63,72,17.83Z"/><path class="cls-2" d="M84.18.59H98.93c4.21,0,7.59,1.27,9.75,3.43a9.47,9.47,0,0,1,2.65,6.76v.1c0,5.68-3.92,9-9.31,10l10.53,14H107.8L97.85,21.56h-9.8V34.89H84.18ZM98.59,18.08c5.14,0,8.82-2.65,8.82-7.06v-.1c0-4.21-3.23-6.76-8.77-6.76H88.05V18.08Z"/><path class="cls-2" d="M119.61.59H144.4V4.12H123.48V15.83H142.2v3.53H123.48v12h21.17v3.53h-25Z"/><path class="cls-2" d="M151,51.28v1.58h-1.23V41.18H151v5.07a3.72,3.72,0,0,1,3.17-1.84,4,4,0,0,1,4,4.29v0a4.05,4.05,0,0,1-4,4.31A3.73,3.73,0,0,1,151,51.28Zm5.86-2.53v0a3,3,0,0,0-2.91-3.2,3.09,3.09,0,0,0-3,3.18v0a3.08,3.08,0,0,0,3,3.2A2.92,2.92,0,0,0,156.82,48.75Z"/><path class="cls-2" d="M160.23,49.73V44.59h1.23v4.83a2.21,2.21,0,0,0,2.29,2.5,2.44,2.44,0,0,0,2.48-2.59V44.59h1.22v8.28h-1.22V51.43A3.15,3.15,0,0,1,163.4,53,3,3,0,0,1,160.23,49.73Z"/><path class="cls-2" d="M170.25,41.42h1.41v1.36h-1.41Zm.08,3.17h1.23v8.28h-1.23Z"/><path class="cls-2" d="M174.53,41.18h1.23V52.87h-1.23Z"/><path class="cls-2" d="M178.15,48.75v0a4.06,4.06,0,0,1,4-4.31,3.73,3.73,0,0,1,3.17,1.76v-5h1.23V52.87h-1.23V51.2A3.72,3.72,0,0,1,182.1,53,4,4,0,0,1,178.15,48.75Zm7.17,0v0a3.08,3.08,0,0,0-3-3.18,2.92,2.92,0,0,0-2.91,3.18v0a3,3,0,0,0,2.91,3.2A3.09,3.09,0,0,0,185.32,48.74Z"/><path class="cls-2" d="M83.25,48.75v0a4.06,4.06,0,0,1,4-4.31,3.73,3.73,0,0,1,3.17,1.76v-5h1.23V52.87H90.37V51.2A3.72,3.72,0,0,1,87.21,53,4,4,0,0,1,83.25,48.75Zm7.17,0v0a3.08,3.08,0,0,0-3-3.18,2.92,2.92,0,0,0-2.91,3.18v0a3,3,0,0,0,2.91,3.2A3.09,3.09,0,0,0,90.42,48.74Z"/><path class="cls-2" d="M93.84,48.75v0a4.08,4.08,0,0,1,4-4.31c2.45,0,3.86,2,3.86,4.37a3.2,3.2,0,0,1,0,.4H95.09A2.89,2.89,0,0,0,98,52a3.43,3.43,0,0,0,2.61-1.17l.77.69A4.27,4.27,0,0,1,98,53.06,4.11,4.11,0,0,1,93.84,48.75Zm6.58-.48c-.13-1.5-1-2.82-2.64-2.82a2.85,2.85,0,0,0-2.69,2.82Z"/><path class="cls-2" d="M103.14,51.81l.62-.88A4.84,4.84,0,0,0,106.63,52c1,0,1.71-.51,1.71-1.31v0c0-.83-1-1.15-2.06-1.46-1.3-.37-2.74-.82-2.74-2.34v0c0-1.42,1.18-2.37,2.82-2.37a5.65,5.65,0,0,1,3,.91l-.56.93a4.68,4.68,0,0,0-2.45-.8c-1,0-1.6.51-1.6,1.2v0c0,.78,1,1.09,2.13,1.42,1.28.38,2.66.88,2.66,2.37v0c0,1.57-1.3,2.48-2.95,2.48A5.69,5.69,0,0,1,103.14,51.81Z"/><path class="cls-2" d="M111.83,41.42h1.41v1.36h-1.41Zm.08,3.17h1.23v8.28h-1.23Z"/><path class="cls-2" d="M115.91,54.31l.56-1a5.29,5.29,0,0,0,3.19,1.06,2.72,2.72,0,0,0,3-2.94v-1a3.92,3.92,0,0,1-3.25,1.74,3.83,3.83,0,0,1-3.89-3.87v0a3.84,3.84,0,0,1,3.89-3.91,3.88,3.88,0,0,1,3.23,1.66V44.59h1.23v6.83a4,4,0,0,1-1.06,2.93,4.35,4.35,0,0,1-3.15,1.1A6.49,6.49,0,0,1,115.91,54.31Zm6.79-6v0a2.9,2.9,0,0,0-3-2.8,2.74,2.74,0,0,0-2.87,2.79v0a2.8,2.8,0,0,0,2.87,2.82A2.92,2.92,0,0,0,122.69,48.34Z"/><path class="cls-2" d="M126.63,44.59h1.23V46a3.13,3.13,0,0,1,2.83-1.62,3,3,0,0,1,3.17,3.31v5.14h-1.23V48a2.21,2.21,0,0,0-2.29-2.5,2.43,2.43,0,0,0-2.48,2.59v4.74h-1.23Z"/></svg>